<svg width="441" height="157" viewBox="0 0 441 157" fill="none" xmlns="http://www.w3.org/2000/svg">
<path d="M0 2V155.5H24.5V48.5L62 75.5V108.5C62 133 87.5 155.5 111.5 155.5C130.7 155.5 143.833 146.833 148 142.5L160 155.5V85H103V108.5H135V121C107.4 146.2 86 127 86 108.5V85L135 48.5V64.5H160V2L80.5 58.5L0 2Z" fill="#0093C8"/>
<path d="M207.49 65V17.5521H222.837L234.431 38.3273L245.958 17.5521H260.701V65H248.571V34.7754L236.575 55.6177H231.817L219.62 34.7754V65H207.49ZM266.179 65L285.212 17.5521H297.543L316.375 65H303.306L300.961 58.2983H281.593L279.18 65H266.179ZM285.413 47.3746H297.141L291.377 31.0895L285.413 47.3746ZM340.699 65.5361C335.963 65.5361 331.831 64.5532 328.301 62.5874C324.816 60.5769 322.113 57.7398 320.192 54.0763C318.271 50.4127 317.31 46.0789 317.31 41.075C317.31 37.3221 317.846 33.9712 318.919 31.0225C320.036 28.0291 321.622 25.4824 323.677 23.3826C325.732 21.2827 328.189 19.6967 331.049 18.6244C333.953 17.5074 337.17 16.949 340.699 16.949C344.363 16.949 347.713 17.5745 350.752 18.8254C353.834 20.0317 356.381 21.9305 358.392 24.5219C360.447 27.0685 361.742 30.33 362.278 34.3063H350.282C350.014 32.8766 349.478 31.7373 348.674 30.8885C347.915 30.0396 346.932 29.4141 345.725 29.012C344.564 28.6099 343.223 28.4088 341.704 28.4088C339.47 28.4088 337.594 28.7886 336.075 29.5481C334.556 30.3076 333.327 31.3352 332.389 32.6309C331.495 33.8819 330.848 35.2892 330.446 36.8529C330.043 38.372 329.842 39.9134 329.842 41.4771C329.842 43.577 330.2 45.6098 330.915 47.5756C331.674 49.4968 332.88 51.0605 334.534 52.2668C336.231 53.4731 338.51 54.0763 341.369 54.0763C342.799 54.0763 344.162 53.8976 345.457 53.5401C346.753 53.1827 347.848 52.6242 348.741 51.8647C349.635 51.0605 350.193 50.0329 350.417 48.7819H339.225V38.5954H363.15V40.3378C363.15 45.6545 362.345 50.1893 360.737 53.9422C359.129 57.6952 356.671 60.5769 353.365 62.5874C350.059 64.5532 345.837 65.5361 340.699 65.5361ZM391.446 65.5361C386.711 65.5361 382.779 64.7096 379.652 63.0565C376.569 61.3588 374.268 58.8568 372.749 55.5506C371.274 52.1998 370.537 48.0671 370.537 43.1525V17.5521H382.667V43.8897C382.667 45.5875 382.913 47.2406 383.404 48.849C383.941 50.4127 384.856 51.7083 386.152 52.7359C387.448 53.7188 389.257 54.2103 391.581 54.2103C393.948 54.2103 395.736 53.6965 396.942 52.6689C398.148 51.6413 398.952 50.3457 399.354 48.7819C399.801 47.1735 400.025 45.5428 400.025 43.8897V17.5521H412.155V43.1525C412.155 48.0224 411.417 52.1328 409.943 55.4836C408.469 58.7898 406.213 61.2917 403.174 62.9895C400.136 64.6873 396.227 65.5361 391.446 65.5361ZM422.148 65V17.5521H434.278V65H422.148Z" fill="#161616"/>
<path d="M223.546 133.323C221.642 133.323 219.712 133.138 217.755 132.768C215.851 132.398 214.053 131.763 212.361 130.864C210.721 129.965 209.346 128.749 208.236 127.215C207.125 125.681 206.411 123.777 206.094 121.503H212.916C213.445 122.931 214.291 124.095 215.454 124.994C216.671 125.84 218.019 126.448 219.5 126.818C221.034 127.189 222.488 127.374 223.863 127.374C224.709 127.374 225.688 127.321 226.798 127.215C227.909 127.109 228.967 126.871 229.971 126.501C231.029 126.078 231.875 125.47 232.51 124.677C233.197 123.883 233.541 122.773 233.541 121.345C233.541 120.287 233.303 119.414 232.827 118.727C232.351 118.039 231.69 117.484 230.844 117.061C229.998 116.585 228.967 116.241 227.75 116.03C225.265 115.501 222.594 114.999 219.738 114.523C216.935 114.047 214.45 113.148 212.281 111.825C211.541 111.349 210.853 110.821 210.219 110.239C209.637 109.604 209.135 108.917 208.712 108.176C208.289 107.383 207.945 106.537 207.68 105.638C207.469 104.686 207.363 103.655 207.363 102.544C207.363 100.482 207.76 98.7099 208.553 97.2291C209.399 95.6955 210.563 94.4527 212.043 93.5007C213.524 92.4959 215.216 91.7555 217.12 91.2796C219.077 90.8036 221.166 90.5656 223.387 90.5656C226.137 90.5656 228.596 91.0151 230.765 91.9142C232.986 92.7603 234.81 94.0296 236.238 95.7219C237.666 97.3613 238.512 99.3974 238.777 101.83H232.51C232.14 100.296 231.135 99.0537 229.495 98.1017C227.856 97.0969 225.767 96.5945 223.229 96.5945C222.382 96.5945 221.43 96.6738 220.373 96.8325C219.315 96.9383 218.31 97.2027 217.358 97.6258C216.406 97.996 215.613 98.5777 214.978 99.371C214.344 100.111 214.027 101.116 214.027 102.385C214.027 103.549 214.317 104.527 214.899 105.321C215.534 106.114 216.406 106.748 217.517 107.224C218.628 107.7 219.897 108.097 221.325 108.414C223.176 108.785 225.212 109.181 227.433 109.604C229.654 109.974 231.399 110.371 232.669 110.794C234.361 111.323 235.762 112.063 236.873 113.015C238.036 113.967 238.883 115.104 239.411 116.426C239.993 117.749 240.284 119.282 240.284 121.027C240.284 123.513 239.782 125.549 238.777 127.136C237.825 128.722 236.529 129.965 234.89 130.864C233.25 131.763 231.426 132.398 229.416 132.768C227.459 133.138 225.503 133.323 223.546 133.323ZM265.969 133.323C261.58 133.323 258.486 132.133 256.688 129.754C254.943 127.374 254.07 123.989 254.07 119.6V96.9912H247.248V91.0416H254.07V78.5078H260.813V91.0416H273.664V96.9912H260.813V118.727C260.813 120.314 260.945 121.768 261.21 123.09C261.474 124.359 262.03 125.39 262.876 126.184C263.722 126.924 264.991 127.321 266.683 127.374C267.9 127.374 268.958 127.162 269.857 126.739C270.808 126.316 271.602 125.814 272.236 125.232L275.172 130.15C274.272 130.891 273.321 131.499 272.316 131.975C271.364 132.451 270.359 132.794 269.301 133.006C268.296 133.217 267.186 133.323 265.969 133.323ZM300.753 133.323C294.989 133.323 290.6 131.79 287.585 128.722C284.623 125.655 283.143 120.948 283.143 114.602V91.0416H289.886V114.285C289.886 117.035 290.282 119.388 291.075 121.345C291.869 123.302 293.059 124.809 294.645 125.866C296.285 126.871 298.321 127.374 300.753 127.374C303.292 127.374 305.381 126.871 307.02 125.866C308.66 124.809 309.85 123.302 310.59 121.345C311.383 119.388 311.78 117.035 311.78 114.285V91.0416H318.523V114.602C318.523 120.948 316.989 125.655 313.922 128.722C310.907 131.79 306.518 133.323 300.753 133.323ZM347.332 133.323C343.155 133.323 339.717 132.398 337.02 130.547C334.323 128.643 332.313 126.104 330.991 122.931C329.669 119.705 329.008 116.083 329.008 112.063C329.008 108.044 329.669 104.422 330.991 101.196C332.313 97.9166 334.349 95.3253 337.099 93.4214C339.849 91.5175 343.366 90.5656 347.65 90.5656C349.289 90.5656 350.929 90.7771 352.568 91.2002C354.26 91.5704 355.847 92.1786 357.328 93.0248C358.809 93.818 360.078 94.9022 361.136 96.2772V76.7626H367.878V132.847H361.453L361.136 126.58C360.184 128.167 358.967 129.463 357.486 130.467C356.059 131.419 354.472 132.133 352.727 132.609C350.982 133.085 349.183 133.323 347.332 133.323ZM348.284 127.374C351.087 127.374 353.441 126.66 355.345 125.232C357.248 123.804 358.703 121.9 359.708 119.52C360.712 117.14 361.215 114.549 361.215 111.746C361.215 108.837 360.712 106.246 359.708 103.972C358.756 101.698 357.328 99.8998 355.424 98.5777C353.52 97.2556 351.114 96.5945 348.205 96.5945C345.191 96.5945 342.758 97.282 340.907 98.657C339.109 100.032 337.787 101.909 336.941 104.289C336.147 106.616 335.751 109.234 335.751 112.143C335.751 114.258 335.962 116.241 336.385 118.092C336.861 119.89 337.575 121.503 338.527 122.931C339.532 124.306 340.828 125.39 342.414 126.184C344.001 126.977 345.957 127.374 348.284 127.374ZM380.056 132.847V91.0416H386.799V132.847H380.056ZM383.388 84.854C382.013 84.854 380.903 84.4309 380.056 83.5848C379.263 82.7386 378.866 81.6545 378.866 80.3323C378.866 79.0102 379.29 77.9525 380.136 77.1592C380.982 76.3131 382.066 75.89 383.388 75.89C384.605 75.89 385.662 76.3131 386.561 77.1592C387.513 78.0054 387.989 79.0631 387.989 80.3323C387.989 81.6545 387.54 82.7386 386.641 83.5848C385.742 84.4309 384.657 84.854 383.388 84.854ZM417.241 133.323C412.852 133.323 409.176 132.424 406.215 130.626C403.253 128.775 401.032 126.237 399.551 123.011C398.123 119.785 397.409 116.109 397.409 111.984C397.409 107.806 398.15 104.131 399.631 100.958C401.111 97.7315 403.332 95.1931 406.294 93.3421C409.256 91.4911 412.958 90.5656 417.4 90.5656C421.789 90.5656 425.438 91.4911 428.347 93.3421C431.309 95.1931 433.503 97.7315 434.931 100.958C436.412 104.131 437.153 107.806 437.153 111.984C437.153 116.109 436.412 119.785 434.931 123.011C433.451 126.237 431.229 128.775 428.268 130.626C425.359 132.424 421.684 133.323 417.241 133.323ZM417.241 127.374C420.309 127.374 422.794 126.686 424.698 125.311C426.655 123.936 428.083 122.085 428.982 119.758C429.934 117.431 430.41 114.84 430.41 111.984C430.41 109.128 429.934 106.537 428.982 104.21C428.083 101.883 426.655 100.032 424.698 98.657C422.794 97.282 420.309 96.5945 417.241 96.5945C414.227 96.5945 411.741 97.282 409.784 98.657C407.881 100.032 406.453 101.883 405.501 104.21C404.602 106.537 404.152 109.128 404.152 111.984C404.152 114.84 404.602 117.431 405.501 119.758C406.453 122.085 407.881 123.936 409.784 125.311C411.741 126.686 414.227 127.374 417.241 127.374Z" fill="#161616"/>
</svg>
