<svg width="644" height="99" viewBox="0 0 644 99" fill="none" xmlns="http://www.w3.org/2000/svg">
<path d="M141.985 74V21.3248H159.022L171.894 44.3888L184.69 21.3248H201.058V74H187.592V40.4456L174.274 63.584H168.992L155.451 40.4456V74H141.985ZM207.139 74L228.269 21.3248H241.959L262.865 74H248.357L245.753 66.56H224.251L221.573 74H207.139ZM228.492 54.4328H241.512L235.114 36.3536L228.492 54.4328ZM289.869 74.5952C284.612 74.5952 280.024 73.504 276.105 71.3216C272.237 69.0896 269.236 65.94 267.103 61.8728C264.97 57.8056 263.904 52.9944 263.904 47.4392C263.904 43.2728 264.499 39.5528 265.689 36.2792C266.929 32.956 268.69 30.1288 270.972 27.7976C273.253 25.4664 275.981 23.7056 279.156 22.5152C282.38 21.2752 285.951 20.6552 289.869 20.6552C293.937 20.6552 297.657 21.3496 301.029 22.7384C304.452 24.0776 307.279 26.1856 309.511 29.0624C311.793 31.8896 313.231 35.5104 313.826 39.9248H300.509C300.211 38.3376 299.616 37.0728 298.723 36.1304C297.88 35.188 296.789 34.4936 295.449 34.0472C294.16 33.6008 292.672 33.3776 290.985 33.3776C288.505 33.3776 286.422 33.7992 284.736 34.6424C283.049 35.4856 281.685 36.6264 280.644 38.0648C279.652 39.4536 278.933 41.016 278.486 42.752C278.04 44.4384 277.817 46.1496 277.817 47.8856C277.817 50.2168 278.213 52.4736 279.007 54.656C279.85 56.7888 281.189 58.5248 283.025 59.864C284.909 61.2032 287.439 61.8728 290.613 61.8728C292.201 61.8728 293.713 61.6744 295.152 61.2776C296.59 60.8808 297.805 60.2608 298.797 59.4176C299.789 58.5248 300.409 57.384 300.657 55.9952H288.233V44.6864H314.793V46.6208C314.793 52.5232 313.901 57.5576 312.115 61.724C310.329 65.8904 307.601 69.0896 303.931 71.3216C300.261 73.504 295.573 74.5952 289.869 74.5952ZM346.208 74.5952C340.95 74.5952 336.585 73.6776 333.113 71.8424C329.691 69.9576 327.136 67.18 325.45 63.5096C323.813 59.7896 322.995 55.2016 322.995 49.7456V21.3248H336.461V50.564C336.461 52.4488 336.734 54.284 337.28 56.0696C337.875 57.8056 338.892 59.244 340.33 60.3848C341.768 61.476 343.777 62.0216 346.356 62.0216C348.985 62.0216 350.969 61.4512 352.308 60.3104C353.648 59.1696 354.54 57.7312 354.987 55.9952C355.483 54.2096 355.731 52.3992 355.731 50.564V21.3248H369.197V49.7456C369.197 55.152 368.379 59.7152 366.742 63.4352C365.105 67.1056 362.6 69.8832 359.228 71.768C355.855 73.6528 351.515 74.5952 346.208 74.5952ZM380.291 74V21.3248H393.758V74H380.291ZM439.911 74.4464C438.125 74.4464 436.315 74.2728 434.48 73.9256C432.694 73.5784 431.008 72.9832 429.42 72.14C427.883 71.2968 426.593 70.156 425.552 68.7176C424.51 67.2792 423.84 65.4936 423.543 63.3608H429.941C430.437 64.7 431.231 65.7912 432.322 66.6344C433.463 67.428 434.728 67.9984 436.116 68.3456C437.555 68.6928 438.919 68.8664 440.208 68.8664C441.002 68.8664 441.92 68.8168 442.961 68.7176C444.003 68.6184 444.995 68.3952 445.937 68.048C446.929 67.6512 447.723 67.0808 448.318 66.3368C448.963 65.5928 449.285 64.5512 449.285 63.212C449.285 62.22 449.062 61.4016 448.616 60.7568C448.169 60.112 447.549 59.5912 446.756 59.1944C445.962 58.748 444.995 58.4256 443.854 58.2272C441.523 57.7312 439.018 57.26 436.34 56.8136C433.711 56.3672 431.38 55.524 429.346 54.284C428.652 53.8376 428.007 53.3416 427.412 52.796C426.866 52.2008 426.395 51.556 425.998 50.8616C425.601 50.1176 425.279 49.324 425.031 48.4808C424.832 47.588 424.733 46.6208 424.733 45.5792C424.733 43.6448 425.105 41.9832 425.849 40.5944C426.643 39.156 427.734 37.9904 429.123 37.0976C430.512 36.1552 432.099 35.4608 433.884 35.0144C435.72 34.568 437.679 34.3448 439.762 34.3448C442.341 34.3448 444.648 34.7664 446.681 35.6096C448.764 36.4032 450.476 37.5936 451.815 39.1808C453.154 40.7184 453.948 42.628 454.196 44.9096H448.318C447.971 43.4712 447.028 42.3056 445.491 41.4128C443.953 40.4704 441.994 39.9992 439.613 39.9992C438.82 39.9992 437.927 40.0736 436.935 40.2224C435.943 40.3216 435 40.5696 434.108 40.9664C433.215 41.3136 432.471 41.8592 431.876 42.6032C431.28 43.2976 430.983 44.24 430.983 45.4304C430.983 46.5216 431.256 47.4392 431.801 48.1832C432.396 48.9272 433.215 49.5224 434.256 49.9688C435.298 50.4152 436.488 50.7872 437.828 51.0848C439.564 51.432 441.473 51.804 443.556 52.2008C445.64 52.548 447.276 52.92 448.467 53.3168C450.054 53.8128 451.368 54.5072 452.41 55.4C453.501 56.2928 454.295 57.3592 454.791 58.5992C455.336 59.8392 455.609 61.2776 455.609 62.9144C455.609 65.2456 455.138 67.1552 454.196 68.6432C453.303 70.1312 452.088 71.2968 450.55 72.14C449.012 72.9832 447.301 73.5784 445.416 73.9256C443.581 74.2728 441.746 74.4464 439.911 74.4464ZM479.699 74.4464C475.582 74.4464 472.681 73.3304 470.994 71.0984C469.358 68.8664 468.539 65.692 468.539 61.5752V40.3712H462.141V34.7912H468.539V23.036H474.863V34.7912H486.916V40.3712H474.863V60.7568C474.863 62.2448 474.987 63.6088 475.235 64.8488C475.483 66.0392 476.004 67.0064 476.798 67.7504C477.591 68.4448 478.782 68.8168 480.369 68.8664C481.51 68.8664 482.502 68.668 483.345 68.2712C484.238 67.8744 484.982 67.4032 485.577 66.8576L488.33 71.4704C487.486 72.1648 486.594 72.7352 485.651 73.1816C484.758 73.628 483.816 73.9504 482.824 74.1488C481.882 74.3472 480.84 74.4464 479.699 74.4464ZM512.322 74.4464C506.916 74.4464 502.799 73.008 499.972 70.1312C497.194 67.2544 495.806 62.84 495.806 56.888V34.7912H502.13V56.5904C502.13 59.1696 502.502 61.3768 503.246 63.212C503.99 65.0472 505.106 66.4608 506.594 67.4528C508.131 68.3952 510.041 68.8664 512.322 68.8664C514.703 68.8664 516.662 68.3952 518.2 67.4528C519.738 66.4608 520.854 65.0472 521.548 63.212C522.292 61.3768 522.664 59.1696 522.664 56.5904V34.7912H528.988V56.888C528.988 62.84 527.55 67.2544 524.673 70.1312C521.846 73.008 517.729 74.4464 512.322 74.4464ZM556.008 74.4464C552.09 74.4464 548.866 73.5784 546.336 71.8424C543.806 70.0568 541.922 67.676 540.682 64.7C539.442 61.6744 538.822 58.2768 538.822 54.5072C538.822 50.7376 539.442 47.34 540.682 44.3144C541.922 41.2392 543.831 38.8088 546.41 37.0232C548.99 35.2376 552.288 34.3448 556.306 34.3448C557.843 34.3448 559.381 34.5432 560.918 34.94C562.506 35.2872 563.994 35.8576 565.382 36.6512C566.771 37.3952 567.962 38.412 568.954 39.7016V21.3992H575.278V74H569.251L568.954 68.1224C568.061 69.6104 566.92 70.8256 565.531 71.768C564.192 72.6608 562.704 73.3304 561.067 73.7768C559.43 74.2232 557.744 74.4464 556.008 74.4464ZM556.901 68.8664C559.53 68.8664 561.737 68.1968 563.522 66.8576C565.308 65.5184 566.672 63.7328 567.614 61.5008C568.557 59.2688 569.028 56.8384 569.028 54.2096C569.028 51.4816 568.557 49.0512 567.614 46.9184C566.722 44.7856 565.382 43.0992 563.597 41.8592C561.811 40.6192 559.554 39.9992 556.826 39.9992C553.999 39.9992 551.718 40.644 549.982 41.9336C548.295 43.2232 547.055 44.984 546.262 47.216C545.518 49.3984 545.146 51.8536 545.146 54.5816C545.146 56.5656 545.344 58.4256 545.741 60.1616C546.187 61.848 546.857 63.3608 547.75 64.7C548.692 65.9896 549.907 67.0064 551.395 67.7504C552.883 68.4944 554.718 68.8664 556.901 68.8664ZM586.699 74V34.7912H593.023V74H586.699ZM589.824 28.988C588.534 28.988 587.493 28.5912 586.699 27.7976C585.955 27.004 585.583 25.9872 585.583 24.7472C585.583 23.5072 585.98 22.5152 586.774 21.7712C587.567 20.9776 588.584 20.5808 589.824 20.5808C590.965 20.5808 591.957 20.9776 592.8 21.7712C593.693 22.5648 594.139 23.5568 594.139 24.7472C594.139 25.9872 593.718 27.004 592.874 27.7976C592.031 28.5912 591.014 28.988 589.824 28.988ZM621.574 74.4464C617.457 74.4464 614.01 73.6032 611.233 71.9168C608.455 70.1808 606.372 67.8 604.983 64.7744C603.644 61.7488 602.974 58.3016 602.974 54.4328C602.974 50.5144 603.669 47.0672 605.057 44.0912C606.446 41.0656 608.529 38.6848 611.307 36.9488C614.085 35.2128 617.557 34.3448 621.723 34.3448C625.84 34.3448 629.262 35.2128 631.99 36.9488C634.768 38.6848 636.826 41.0656 638.165 44.0912C639.554 47.0672 640.249 50.5144 640.249 54.4328C640.249 58.3016 639.554 61.7488 638.165 64.7744C636.777 67.8 634.693 70.1808 631.916 71.9168C629.188 73.6032 625.741 74.4464 621.574 74.4464ZM621.574 68.8664C624.451 68.8664 626.782 68.2216 628.568 66.932C630.403 65.6424 631.742 63.9064 632.585 61.724C633.478 59.5416 633.925 57.1112 633.925 54.4328C633.925 51.7544 633.478 49.324 632.585 47.1416C631.742 44.9592 630.403 43.2232 628.568 41.9336C626.782 40.644 624.451 39.9992 621.574 39.9992C618.747 39.9992 616.416 40.644 614.581 41.9336C612.795 43.2232 611.456 44.9592 610.563 47.1416C609.72 49.324 609.298 51.7544 609.298 54.4328C609.298 57.1112 609.72 59.5416 610.563 61.724C611.456 63.9064 612.795 65.6424 614.581 66.932C616.416 68.2216 618.747 68.8664 621.574 68.8664Z" fill="#F2F2F2"/>
<path d="M409.711 74.5952C408.422 74.5952 407.355 74.1736 406.512 73.3304C405.669 72.4872 405.247 71.4208 405.247 70.1312C405.247 68.8416 405.669 67.7752 406.512 66.932C407.355 66.0888 408.422 65.6672 409.711 65.6672C411.001 65.6672 412.067 66.0888 412.911 66.932C413.754 67.7752 414.175 68.8416 414.175 70.1312C414.175 71.4208 413.754 72.4872 412.911 73.3304C412.067 74.1736 411.001 74.5952 409.711 74.5952Z" fill="#0093C8"/>
<path d="M409.711 74.5952C408.422 74.5952 407.355 74.1736 406.512 73.3304C405.669 72.4872 405.247 71.4208 405.247 70.1312C405.247 68.8416 405.669 67.7752 406.512 66.932C407.355 66.0888 408.422 65.6672 409.711 65.6672C411.001 65.6672 412.067 66.0888 412.911 66.932C413.754 67.7752 414.175 68.8416 414.175 70.1312C414.175 71.4208 413.754 72.4872 412.911 73.3304C412.067 74.1736 411.001 74.5952 409.711 74.5952Z" fill="#0093C8"/>
<path d="M0 0V99H15.8013V29.9902L39.987 47.4039V68.6873C39.987 84.4886 56.4332 99 71.9121 99C84.2951 99 92.7655 93.4104 95.4528 90.6156L103.192 99V53.5309H66.43V68.6873H87.0684V76.7492C69.2678 93.002 55.4658 80.6189 55.4658 68.6873V53.5309L87.0684 29.9902V40.3094H103.192V0L51.9186 36.4397L0 0Z" fill="#0093C8"/>
</svg>
