<svg width="507" height="278" viewBox="0 0 507 278" fill="none" xmlns="http://www.w3.org/2000/svg">
<path d="M171 0V158.297H196.266V47.9531L234.938 75.7969V109.828C234.938 135.094 261.234 158.297 285.984 158.297C305.784 158.297 319.328 149.359 323.625 144.891L336 158.297V85.5938H277.219V109.828H310.219V122.719C281.756 148.706 259.688 128.906 259.688 109.828V85.5938L310.219 47.9531V64.4531H336V0L254.016 58.2656L171 0Z" fill="#0093C8"/>
<path d="M4.9848 254.398V201.723H22.0224L34.8936 224.787L47.6904 201.723H64.0584V254.398H50.592V220.844L37.2744 243.982H31.992L18.4512 220.844V254.398H4.9848ZM70.1394 254.398L91.269 201.723H104.959L125.865 254.398H111.357L108.753 246.958H87.2514L84.573 254.398H70.1394ZM91.4922 234.831H104.512L98.1138 216.752L91.4922 234.831ZM152.869 254.994C147.612 254.994 143.024 253.902 139.105 251.72C135.237 249.488 132.236 246.338 130.103 242.271C127.97 238.204 126.904 233.393 126.904 227.838C126.904 223.671 127.499 219.951 128.689 216.678C129.929 213.354 131.69 210.527 133.972 208.196C136.253 205.865 138.981 204.104 142.156 202.914C145.38 201.674 148.951 201.054 152.869 201.054C156.937 201.054 160.657 201.748 164.029 203.137C167.452 204.476 170.279 206.584 172.511 209.461C174.793 212.288 176.231 215.909 176.826 220.323H163.509C163.211 218.736 162.616 217.471 161.723 216.529C160.88 215.586 159.789 214.892 158.449 214.446C157.16 213.999 155.672 213.776 153.985 213.776C151.505 213.776 149.422 214.198 147.736 215.041C146.049 215.884 144.685 217.025 143.644 218.463C142.652 219.852 141.933 221.414 141.486 223.15C141.04 224.837 140.817 226.548 140.817 228.284C140.817 230.615 141.213 232.872 142.007 235.054C142.85 237.187 144.189 238.923 146.025 240.262C147.909 241.602 150.439 242.271 153.613 242.271C155.201 242.271 156.713 242.073 158.152 241.676C159.59 241.279 160.805 240.659 161.797 239.816C162.789 238.923 163.409 237.782 163.657 236.394H151.233V225.085H177.793V227.019C177.793 232.922 176.901 237.956 175.115 242.122C173.329 246.289 170.601 249.488 166.931 251.72C163.261 253.902 158.573 254.994 152.869 254.994ZM209.208 254.994C203.95 254.994 199.585 254.076 196.113 252.241C192.691 250.356 190.136 247.578 188.45 243.908C186.813 240.188 185.995 235.6 185.995 230.144V201.723H199.461V230.962C199.461 232.847 199.734 234.682 200.28 236.468C200.875 238.204 201.892 239.642 203.33 240.783C204.768 241.874 206.777 242.42 209.356 242.42C211.985 242.42 213.969 241.85 215.308 240.709C216.648 239.568 217.54 238.13 217.987 236.394C218.483 234.608 218.731 232.798 218.731 230.962V201.723H232.197V230.144C232.197 235.55 231.379 240.114 229.742 243.834C228.105 247.504 225.6 250.282 222.228 252.166C218.855 254.051 214.515 254.994 209.208 254.994ZM243.291 254.398V201.723H256.758V254.398H243.291ZM302.911 254.845C301.125 254.845 299.315 254.671 297.48 254.324C295.694 253.977 294.008 253.382 292.42 252.538C290.883 251.695 289.593 250.554 288.552 249.116C287.51 247.678 286.84 245.892 286.543 243.759H292.941C293.437 245.098 294.231 246.19 295.322 247.033C296.463 247.826 297.728 248.397 299.116 248.744C300.555 249.091 301.919 249.265 303.208 249.265C304.002 249.265 304.92 249.215 305.961 249.116C307.003 249.017 307.995 248.794 308.937 248.446C309.929 248.05 310.723 247.479 311.318 246.735C311.963 245.991 312.285 244.95 312.285 243.61C312.285 242.618 312.062 241.8 311.616 241.155C311.169 240.51 310.549 239.99 309.756 239.593C308.962 239.146 307.995 238.824 306.854 238.626C304.523 238.13 302.018 237.658 299.34 237.212C296.711 236.766 294.38 235.922 292.346 234.682C291.652 234.236 291.007 233.74 290.412 233.194C289.866 232.599 289.395 231.954 288.998 231.26C288.601 230.516 288.279 229.722 288.031 228.879C287.832 227.986 287.733 227.019 287.733 225.978C287.733 224.043 288.105 222.382 288.849 220.993C289.643 219.554 290.734 218.389 292.123 217.496C293.512 216.554 295.099 215.859 296.884 215.413C298.72 214.966 300.679 214.743 302.762 214.743C305.341 214.743 307.648 215.165 309.681 216.008C311.764 216.802 313.476 217.992 314.815 219.579C316.154 221.117 316.948 223.026 317.196 225.308H311.318C310.971 223.87 310.028 222.704 308.491 221.811C306.953 220.869 304.994 220.398 302.613 220.398C301.82 220.398 300.927 220.472 299.935 220.621C298.943 220.72 298 220.968 297.108 221.365C296.215 221.712 295.471 222.258 294.876 223.002C294.28 223.696 293.983 224.638 293.983 225.829C293.983 226.92 294.256 227.838 294.801 228.582C295.396 229.326 296.215 229.921 297.256 230.367C298.298 230.814 299.488 231.186 300.828 231.483C302.564 231.83 304.473 232.202 306.556 232.599C308.64 232.946 310.276 233.318 311.467 233.715C313.054 234.211 314.368 234.906 315.41 235.798C316.501 236.691 317.295 237.758 317.791 238.998C318.336 240.238 318.609 241.676 318.609 243.313C318.609 245.644 318.138 247.554 317.196 249.042C316.303 250.53 315.088 251.695 313.55 252.538C312.012 253.382 310.301 253.977 308.416 254.324C306.581 254.671 304.746 254.845 302.911 254.845ZM342.699 254.845C338.582 254.845 335.681 253.729 333.994 251.497C332.358 249.265 331.539 246.09 331.539 241.974V220.77H325.141V215.19H331.539V203.434H337.863V215.19H349.916V220.77H337.863V241.155C337.863 242.643 337.987 244.007 338.235 245.247C338.483 246.438 339.004 247.405 339.798 248.149C340.591 248.843 341.782 249.215 343.369 249.265C344.51 249.265 345.502 249.066 346.345 248.67C347.238 248.273 347.982 247.802 348.577 247.256L351.33 251.869C350.486 252.563 349.594 253.134 348.651 253.58C347.758 254.026 346.816 254.349 345.824 254.547C344.882 254.746 343.84 254.845 342.699 254.845ZM375.322 254.845C369.916 254.845 365.799 253.406 362.972 250.53C360.194 247.653 358.806 243.238 358.806 237.286V215.19H365.13V236.989C365.13 239.568 365.502 241.775 366.246 243.61C366.99 245.446 368.106 246.859 369.594 247.851C371.131 248.794 373.041 249.265 375.322 249.265C377.703 249.265 379.662 248.794 381.2 247.851C382.738 246.859 383.854 245.446 384.548 243.61C385.292 241.775 385.664 239.568 385.664 236.989V215.19H391.988V237.286C391.988 243.238 390.55 247.653 387.673 250.53C384.846 253.406 380.729 254.845 375.322 254.845ZM419.008 254.845C415.09 254.845 411.866 253.977 409.336 252.241C406.806 250.455 404.922 248.074 403.682 245.098C402.442 242.073 401.822 238.675 401.822 234.906C401.822 231.136 402.442 227.738 403.682 224.713C404.922 221.638 406.831 219.207 409.41 217.422C411.99 215.636 415.288 214.743 419.306 214.743C420.843 214.743 422.381 214.942 423.918 215.338C425.506 215.686 426.994 216.256 428.382 217.05C429.771 217.794 430.962 218.81 431.954 220.1V201.798H438.278V254.398H432.251L431.954 248.521C431.061 250.009 429.92 251.224 428.531 252.166C427.192 253.059 425.704 253.729 424.067 254.175C422.43 254.622 420.744 254.845 419.008 254.845ZM419.901 249.265C422.53 249.265 424.737 248.595 426.522 247.256C428.308 245.917 429.672 244.131 430.614 241.899C431.557 239.667 432.028 237.237 432.028 234.608C432.028 231.88 431.557 229.45 430.614 227.317C429.722 225.184 428.382 223.498 426.597 222.258C424.811 221.018 422.554 220.398 419.826 220.398C416.999 220.398 414.718 221.042 412.982 222.332C411.295 223.622 410.055 225.382 409.262 227.614C408.518 229.797 408.146 232.252 408.146 234.98C408.146 236.964 408.344 238.824 408.741 240.56C409.187 242.246 409.857 243.759 410.75 245.098C411.692 246.388 412.907 247.405 414.395 248.149C415.883 248.893 417.718 249.265 419.901 249.265ZM449.699 254.398V215.19H456.023V254.398H449.699ZM452.824 209.386C451.534 209.386 450.493 208.99 449.699 208.196C448.955 207.402 448.583 206.386 448.583 205.146C448.583 203.906 448.98 202.914 449.774 202.17C450.567 201.376 451.584 200.979 452.824 200.979C453.965 200.979 454.957 201.376 455.8 202.17C456.693 202.963 457.139 203.955 457.139 205.146C457.139 206.386 456.718 207.402 455.874 208.196C455.031 208.99 454.014 209.386 452.824 209.386ZM484.574 254.845C480.457 254.845 477.01 254.002 474.233 252.315C471.455 250.579 469.372 248.198 467.983 245.173C466.644 242.147 465.974 238.7 465.974 234.831C465.974 230.913 466.669 227.466 468.057 224.49C469.446 221.464 471.529 219.083 474.307 217.347C477.085 215.611 480.557 214.743 484.723 214.743C488.84 214.743 492.262 215.611 494.99 217.347C497.768 219.083 499.826 221.464 501.165 224.49C502.554 227.466 503.249 230.913 503.249 234.831C503.249 238.7 502.554 242.147 501.165 245.173C499.777 248.198 497.693 250.579 494.916 252.315C492.188 254.002 488.741 254.845 484.574 254.845ZM484.574 249.265C487.451 249.265 489.782 248.62 491.568 247.33C493.403 246.041 494.742 244.305 495.585 242.122C496.478 239.94 496.925 237.51 496.925 234.831C496.925 232.153 496.478 229.722 495.585 227.54C494.742 225.358 493.403 223.622 491.568 222.332C489.782 221.042 487.451 220.398 484.574 220.398C481.747 220.398 479.416 221.042 477.581 222.332C475.795 223.622 474.456 225.358 473.563 227.54C472.72 229.722 472.298 232.153 472.298 234.831C472.298 237.51 472.72 239.94 473.563 242.122C474.456 244.305 475.795 246.041 477.581 247.33C479.416 248.62 481.747 249.265 484.574 249.265Z" fill="#F2F2F2"/>
<path d="M272.711 254.994C271.422 254.994 270.355 254.572 269.512 253.729C268.669 252.886 268.247 251.819 268.247 250.53C268.247 249.24 268.669 248.174 269.512 247.33C270.355 246.487 271.422 246.066 272.711 246.066C274.001 246.066 275.067 246.487 275.911 247.33C276.754 248.174 277.175 249.24 277.175 250.53C277.175 251.819 276.754 252.886 275.911 253.729C275.067 254.572 274.001 254.994 272.711 254.994Z" fill="#0093C8"/>
<path d="M272.711 254.994C271.422 254.994 270.355 254.572 269.512 253.729C268.669 252.886 268.247 251.819 268.247 250.53C268.247 249.24 268.669 248.174 269.512 247.33C270.355 246.487 271.422 246.066 272.711 246.066C274.001 246.066 275.067 246.487 275.911 247.33C276.754 248.174 277.175 249.24 277.175 250.53C277.175 251.819 276.754 252.886 275.911 253.729C275.067 254.572 274.001 254.994 272.711 254.994Z" fill="#0093C8"/>
</svg>
