<svg width="262" height="229" viewBox="0 0 262 229" fill="none" xmlns="http://www.w3.org/2000/svg">
<path d="M90 0V79.6281H102.709V24.1219L122.163 38.1281V55.2469C122.163 67.9563 135.391 79.6281 147.841 79.6281C157.801 79.6281 164.614 75.1323 166.775 72.8844L173 79.6281V43.0563H143.431V55.2469H160.031V61.7313C145.714 74.8037 134.612 64.8438 134.612 55.2469V43.0563L160.031 24.1219V32.4219H173V0L131.759 29.3094L90 0Z" fill="#0093C8"/>
<path d="M80.432 213.352C79.28 213.352 78.112 213.24 76.928 213.016C75.776 212.792 74.688 212.408 73.664 211.864C72.672 211.32 71.84 210.584 71.168 209.656C70.496 208.728 70.064 207.576 69.872 206.2H74C74.32 207.064 74.832 207.768 75.536 208.312C76.272 208.824 77.088 209.192 77.984 209.416C78.912 209.64 79.792 209.752 80.624 209.752C81.136 209.752 81.728 209.72 82.4 209.656C83.072 209.592 83.712 209.448 84.32 209.224C84.96 208.968 85.472 208.6 85.856 208.12C86.272 207.64 86.48 206.968 86.48 206.104C86.48 205.464 86.336 204.936 86.048 204.52C85.76 204.104 85.36 203.768 84.848 203.512C84.336 203.224 83.712 203.016 82.976 202.888C81.472 202.568 79.856 202.264 78.128 201.976C76.432 201.688 74.928 201.144 73.616 200.344C73.168 200.056 72.752 199.736 72.368 199.384C72.016 199 71.712 198.584 71.456 198.136C71.2 197.656 70.992 197.144 70.832 196.6C70.704 196.024 70.64 195.4 70.64 194.728C70.64 193.48 70.88 192.408 71.36 191.512C71.872 190.584 72.576 189.832 73.472 189.256C74.368 188.648 75.392 188.2 76.544 187.912C77.728 187.624 78.992 187.48 80.336 187.48C82 187.48 83.488 187.752 84.8 188.296C86.144 188.808 87.248 189.576 88.112 190.6C88.976 191.592 89.488 192.824 89.648 194.296H85.856C85.632 193.368 85.024 192.616 84.032 192.04C83.04 191.432 81.776 191.128 80.24 191.128C79.728 191.128 79.152 191.176 78.512 191.272C77.872 191.336 77.264 191.496 76.688 191.752C76.112 191.976 75.632 192.328 75.248 192.808C74.864 193.256 74.672 193.864 74.672 194.632C74.672 195.336 74.848 195.928 75.2 196.408C75.584 196.888 76.112 197.272 76.784 197.56C77.456 197.848 78.224 198.088 79.088 198.28C80.208 198.504 81.44 198.744 82.784 199C84.128 199.224 85.184 199.464 85.952 199.72C86.976 200.04 87.824 200.488 88.496 201.064C89.2 201.64 89.712 202.328 90.032 203.128C90.384 203.928 90.56 204.856 90.56 205.912C90.56 207.416 90.256 208.648 89.648 209.608C89.072 210.568 88.288 211.32 87.296 211.864C86.304 212.408 85.2 212.792 83.984 213.016C82.8 213.24 81.616 213.352 80.432 213.352ZM106.102 213.352C103.446 213.352 101.574 212.632 100.486 211.192C99.4299 209.752 98.9019 207.704 98.9019 205.048V191.368H94.7739V187.768H98.9019V180.184H102.982V187.768H110.758V191.368H102.982V204.52C102.982 205.48 103.062 206.36 103.222 207.16C103.382 207.928 103.718 208.552 104.23 209.032C104.742 209.48 105.51 209.72 106.534 209.752C107.27 209.752 107.91 209.624 108.454 209.368C109.03 209.112 109.51 208.808 109.894 208.456L111.67 211.432C111.126 211.88 110.55 212.248 109.942 212.536C109.366 212.824 108.758 213.032 108.118 213.16C107.51 213.288 106.838 213.352 106.102 213.352ZM127.149 213.352C123.661 213.352 121.005 212.424 119.181 210.568C117.389 208.712 116.493 205.864 116.493 202.024V187.768H120.573V201.832C120.573 203.496 120.813 204.92 121.293 206.104C121.773 207.288 122.493 208.2 123.453 208.84C124.445 209.448 125.677 209.752 127.149 209.752C128.685 209.752 129.949 209.448 130.941 208.84C131.933 208.2 132.653 207.288 133.101 206.104C133.581 204.92 133.821 203.496 133.821 201.832V187.768H137.901V202.024C137.901 205.864 136.973 208.712 135.117 210.568C133.293 212.424 130.637 213.352 127.149 213.352ZM155.333 213.352C152.805 213.352 150.725 212.792 149.093 211.672C147.461 210.52 146.245 208.984 145.445 207.064C144.645 205.112 144.245 202.92 144.245 200.488C144.245 198.056 144.645 195.864 145.445 193.912C146.245 191.928 147.477 190.36 149.141 189.208C150.805 188.056 152.933 187.48 155.525 187.48C156.517 187.48 157.509 187.608 158.501 187.864C159.525 188.088 160.485 188.456 161.381 188.968C162.277 189.448 163.045 190.104 163.685 190.936V179.128H167.765V213.064H163.877L163.685 209.272C163.109 210.232 162.373 211.016 161.477 211.624C160.613 212.2 159.653 212.632 158.597 212.92C157.541 213.208 156.453 213.352 155.333 213.352ZM155.909 209.752C157.605 209.752 159.029 209.32 160.181 208.456C161.333 207.592 162.213 206.44 162.821 205C163.429 203.56 163.733 201.992 163.733 200.296C163.733 198.536 163.429 196.968 162.821 195.592C162.245 194.216 161.381 193.128 160.229 192.328C159.077 191.528 157.621 191.128 155.861 191.128C154.037 191.128 152.565 191.544 151.445 192.376C150.357 193.208 149.557 194.344 149.045 195.784C148.565 197.192 148.325 198.776 148.325 200.536C148.325 201.816 148.453 203.016 148.709 204.136C148.997 205.224 149.429 206.2 150.005 207.064C150.613 207.896 151.397 208.552 152.357 209.032C153.317 209.512 154.501 209.752 155.909 209.752ZM175.134 213.064V187.768H179.214V213.064H175.134ZM177.15 184.024C176.318 184.024 175.646 183.768 175.134 183.256C174.654 182.744 174.414 182.088 174.414 181.288C174.414 180.488 174.67 179.848 175.182 179.368C175.694 178.856 176.35 178.6 177.15 178.6C177.886 178.6 178.526 178.856 179.07 179.368C179.646 179.88 179.934 180.52 179.934 181.288C179.934 182.088 179.662 182.744 179.118 183.256C178.574 183.768 177.918 184.024 177.15 184.024ZM197.634 213.352C194.978 213.352 192.754 212.808 190.962 211.72C189.17 210.6 187.826 209.064 186.93 207.112C186.066 205.16 185.634 202.936 185.634 200.44C185.634 197.912 186.082 195.688 186.978 193.768C187.874 191.816 189.218 190.28 191.01 189.16C192.802 188.04 195.042 187.48 197.73 187.48C200.386 187.48 202.594 188.04 204.354 189.16C206.146 190.28 207.474 191.816 208.338 193.768C209.234 195.688 209.682 197.912 209.682 200.44C209.682 202.936 209.234 205.16 208.338 207.112C207.442 209.064 206.098 210.6 204.306 211.72C202.546 212.808 200.322 213.352 197.634 213.352ZM197.634 209.752C199.49 209.752 200.994 209.336 202.146 208.504C203.33 207.672 204.194 206.552 204.738 205.144C205.314 203.736 205.602 202.168 205.602 200.44C205.602 198.712 205.314 197.144 204.738 195.736C204.194 194.328 203.33 193.208 202.146 192.376C200.994 191.544 199.49 191.128 197.634 191.128C195.81 191.128 194.306 191.544 193.122 192.376C191.97 193.208 191.106 194.328 190.53 195.736C189.986 197.144 189.714 198.712 189.714 200.44C189.714 202.168 189.986 203.736 190.53 205.144C191.106 206.552 191.97 207.672 193.122 208.504C194.306 209.336 195.81 209.752 197.634 209.752Z" fill="#F2F2F2"/>
<path d="M4.9848 167.064V114.389H22.0224L34.8936 137.453L47.6904 114.389H64.0584V167.064H50.592V133.51L37.2744 156.648H31.992L18.4512 133.51V167.064H4.9848ZM70.1394 167.064L91.269 114.389H104.959L125.865 167.064H111.357L108.753 159.624H87.2514L84.573 167.064H70.1394ZM91.4922 147.497H104.512L98.1138 129.418L91.4922 147.497ZM152.869 167.659C147.612 167.659 143.024 166.568 139.105 164.386C135.237 162.154 132.236 159.004 130.103 154.937C127.97 150.87 126.904 146.058 126.904 140.503C126.904 136.337 127.499 132.617 128.689 129.343C129.929 126.02 131.69 123.193 133.972 120.862C136.253 118.53 138.981 116.77 142.156 115.579C145.38 114.339 148.951 113.719 152.869 113.719C156.937 113.719 160.657 114.414 164.029 115.802C167.452 117.142 170.279 119.25 172.511 122.126C174.793 124.954 176.231 128.574 176.826 132.989H163.509C163.211 131.402 162.616 130.137 161.723 129.194C160.88 128.252 159.789 127.558 158.449 127.111C157.16 126.665 155.672 126.442 153.985 126.442C151.505 126.442 149.422 126.863 147.736 127.706C146.049 128.55 144.685 129.69 143.644 131.129C142.652 132.518 141.933 134.08 141.486 135.816C141.04 137.502 140.817 139.214 140.817 140.95C140.817 143.281 141.213 145.538 142.007 147.72C142.85 149.853 144.189 151.589 146.025 152.928C147.909 154.267 150.439 154.937 153.613 154.937C155.201 154.937 156.713 154.738 158.152 154.342C159.59 153.945 160.805 153.325 161.797 152.482C162.789 151.589 163.409 150.448 163.657 149.059H151.233V137.75H177.793V139.685C177.793 145.587 176.901 150.622 175.115 154.788C173.329 158.954 170.601 162.154 166.931 164.386C163.261 166.568 158.573 167.659 152.869 167.659ZM209.208 167.659C203.95 167.659 199.585 166.742 196.113 164.906C192.691 163.022 190.136 160.244 188.45 156.574C186.813 152.854 185.995 148.266 185.995 142.81V114.389H199.461V143.628C199.461 145.513 199.734 147.348 200.28 149.134C200.875 150.87 201.892 152.308 203.33 153.449C204.768 154.54 206.777 155.086 209.356 155.086C211.985 155.086 213.969 154.515 215.308 153.374C216.648 152.234 217.54 150.795 217.987 149.059C218.483 147.274 218.731 145.463 218.731 143.628V114.389H232.197V142.81C232.197 148.216 231.379 152.779 229.742 156.499C228.105 160.17 225.6 162.947 222.228 164.832C218.855 166.717 214.515 167.659 209.208 167.659ZM243.291 167.064V114.389H256.758V167.064H243.291Z" fill="#F2F2F2"/>
</svg>
